# xmcd CD database file
#
# Track frame offsets:
#	150
#	34003
#	45339
#	64139
#	93606
#	113980
#	123369
#	159712
#	172198
#	189822
#	215695
#	231138
#	253024
#	267551
#	280410
#
# Disc length: 4018 seconds
#
# Revision: 0
# Processed by: cddbd v1.5.2PL0 Copyright (c) Steve Scherf et al.
# Submitted via: CDex 1.51
#
DISCID=de0fb00f
DTITLE=Ramsey Lewis Trio - An Hour With The Ramsey Lewis Trio
DYEAR=1959
DGENRE=Jazz
TTITLE0=Softlt, As In A Morning Sunrise
TTITLE1=C. C. Rider
TTITLE2=Love For Sale
TTITLE3=I Had The Craziest Dream - I Know Why
TTITLE4=It Ain't Necessarily So
TTITLE5=I Love Paris
TTITLE6=The Way You Look Tonight
TTITLE7=Song Of India
TTITLE8=Consider The Source
TTITLE9=The Ruby And The Pearls
TTITLE10=The Walls Of Jericho
TTITLE11=Angel Eyes
TTITLE12=C. C. Rider # 2
TTITLE13=It Ain't Necessarily So # 2
TTITLE14=The Way You Look Tonight # 2
EXTD=YEAR: 1959
EXTT0=
EXTT1=
EXTT2=
EXTT3=
EXTT4=
EXTT5=
EXTT6=
EXTT7=
EXTT8=
EXTT9=
EXTT10=
EXTT11=
EXTT12=
EXTT13=
EXTT14=
PLAYORDER=
